<?xml version="1.0" standalone="no"?>
<!DOCTYPE svg PUBLIC "-//W3C//DTD SVG 20010904//EN"
 "http://www.w3.org/TR/2001/REC-SVG-20010904/DTD/svg10.dtd">
<svg version="1.0" xmlns="http://www.w3.org/2000/svg"
 width="512.000000pt" height="512.000000pt" viewBox="0 0 512.000000 512.000000"
 preserveAspectRatio="xMidYMid meet">

<g transform="translate(0.000000,512.000000) scale(0.100000,-0.100000)"
fill="#000000" stroke="none">
<path d="M1800 4707 c-173 -93 -720 -415 -737 -434 l-23 -24 0 -407 -1 -407
-332 -190 c-182 -104 -344 -202 -359 -217 l-28 -26 0 -440 c0 -413 1 -441 18
-463 11 -12 171 -111 358 -218 l339 -196 5 -412 c4 -356 7 -414 21 -428 8 -9
179 -111 380 -227 283 -164 372 -211 399 -211 28 0 107 41 374 196 187 108
343 197 347 197 3 0 159 -88 345 -197 263 -152 347 -196 374 -196 28 0 112 44
395 208 198 114 369 216 380 227 19 18 20 35 25 430 l5 412 335 193 c184 106
345 205 357 219 l23 25 0 440 0 441 -27 26 c-16 15 -177 113 -360 217 l-332
190 -1 407 0 407 -22 24 c-13 14 -185 118 -383 233 -283 163 -367 207 -395
207 -27 0 -111 -44 -374 -196 -186 -109 -342 -197 -345 -197 -4 0 -160 88
-346 196 -186 107 -350 197 -364 200 -14 3 -37 -1 -51 -9z m366 -348 l314
-182 -2 -371 -3 -371 -317 -183 -317 -183 -318 183 -318 184 -3 370 -2 371
312 181 c172 99 319 181 326 181 8 1 155 -81 328 -180z m1440 0 l314 -182 -2
-371 -3 -371 -317 -183 -317 -183 -318 183 -318 184 -3 370 -2 371 312 181
c172 99 319 181 326 181 8 1 155 -81 328 -180z m-2170 -1243 l319 -184 0 -372
0 -373 -317 -183 -317 -184 -318 184 -318 184 0 372 0 371 315 184 c173 100
316 183 316 184 1 1 145 -82 320 -183z m1440 0 l319 -184 0 -372 0 -373 -317
-183 -317 -184 -318 184 -318 184 0 372 0 371 315 184 c173 100 316 183 316
184 1 1 145 -82 320 -183z m1440 0 l319 -184 0 -372 0 -373 -317 -183 -317
-183 -318 183 -318 184 0 372 0 371 315 184 c173 100 316 183 316 184 1 1 145
-82 320 -183z m-2156 -1249 l315 -182 3 -371 2 -371 -314 -182 c-173 -99 -319
-181 -325 -181 -7 0 -153 82 -326 182 l-315 181 2 371 3 370 315 183 c173 100
317 182 320 182 3 0 147 -82 320 -182z m1440 0 l315 -182 3 -371 2 -371 -314
-182 c-173 -99 -319 -181 -325 -181 -7 0 -153 82 -326 182 l-315 181 2 371 3
370 315 183 c173 100 317 182 320 182 3 0 147 -82 320 -182z"/>
<path d="M2065 4245 c-26 -25 -32 -63 -15 -95 5 -10 48 -40 95 -67 l85 -48 0
-103 c0 -101 1 -104 29 -133 16 -16 37 -29 46 -29 21 0 57 19 72 39 15 20 18
283 3 311 -14 25 -234 150 -265 150 -14 0 -37 -11 -50 -25z"/>
<path d="M3505 4245 c-26 -25 -32 -63 -15 -95 5 -10 48 -40 95 -67 l85 -48 0
-103 c0 -101 1 -104 29 -133 16 -16 37 -29 46 -29 21 0 57 19 72 39 15 20 18
283 3 311 -14 25 -234 150 -265 150 -14 0 -37 -11 -50 -25z"/>
<path d="M1341 2994 c-26 -33 -27 -78 -3 -102 11 -11 53 -38 95 -62 l77 -44 0
-102 c0 -87 3 -105 21 -128 29 -37 89 -37 118 0 19 24 21 40 21 166 0 165 7
154 -147 241 -115 65 -151 71 -182 31z"/>
<path d="M2781 2994 c-26 -33 -27 -78 -3 -102 11 -11 53 -38 95 -62 l77 -44 0
-102 c0 -87 3 -105 21 -128 29 -37 89 -37 118 0 19 24 21 40 21 166 0 165 7
154 -147 241 -115 65 -151 71 -182 31z"/>
<path d="M4221 2994 c-26 -33 -27 -78 -3 -102 11 -11 53 -38 95 -62 l77 -44 0
-102 c0 -87 3 -105 21 -128 29 -37 89 -37 118 0 19 24 21 40 21 166 0 165 7
154 -147 241 -115 65 -151 71 -182 31z"/>
<path d="M2100 1773 c-34 -12 -60 -47 -60 -79 0 -38 27 -64 124 -118 l66 -37
0 -105 c0 -98 2 -107 25 -129 32 -33 78 -33 110 0 24 23 25 29 25 164 0 167 3
162 -141 244 -103 59 -126 68 -149 60z"/>
<path d="M3540 1773 c-34 -12 -60 -47 -60 -79 0 -38 27 -64 124 -118 l66 -37
0 -105 c0 -98 2 -107 25 -129 32 -33 78 -33 110 0 24 23 25 29 25 164 0 167 3
162 -141 244 -103 59 -126 68 -149 60z"/>
</g>
</svg>
