<?xml version="1.0" standalone="no"?>
<!DOCTYPE svg PUBLIC "-//W3C//DTD SVG 20010904//EN"
 "http://www.w3.org/TR/2001/REC-SVG-20010904/DTD/svg10.dtd">
<svg version="1.0" xmlns="http://www.w3.org/2000/svg"
 width="550.000000pt" height="550.000000pt" viewBox="0 0 550.000000 550.000000"
 preserveAspectRatio="xMidYMid meet">

<g transform="translate(0.000000,550.000000) scale(0.100000,-0.100000)"
fill="#000000" stroke="none">
<path d="M1785 5337 c-71 -27 -142 -73 -180 -119 -46 -54 -86 -153 -92 -228
-6 -77 21 -187 58 -233 23 -31 22 -32 -53 -42 -111 -15 -234 -110 -284 -220
-60 -130 -50 -244 33 -396 2 -3 -20 -9 -48 -12 -72 -9 -170 -57 -224 -112 -26
-25 -61 -76 -78 -113 -29 -61 -32 -75 -32 -167 0 -100 6 -123 62 -226 2 -4
-18 -10 -44 -14 -74 -10 -183 -67 -232 -120 -24 -26 -57 -77 -74 -113 -28 -59
-31 -77 -32 -157 0 -117 25 -183 102 -265 64 -69 151 -117 231 -127 28 -3 52
-8 52 -10 0 -2 -15 -32 -32 -66 -31 -58 -33 -68 -32 -167 0 -96 2 -110 29
-165 55 -112 176 -206 285 -221 74 -10 74 -9 45 -58 -14 -24 -32 -75 -40 -112
-45 -216 98 -424 321 -466 l59 -11 -32 -63 c-54 -108 -55 -226 -2 -340 31 -66
120 -154 194 -190 l60 -29 326 -3 327 -3 4 -107 c4 -114 13 -142 69 -213 63
-80 207 -121 307 -86 l43 15 14 -35 c8 -20 15 -39 15 -43 0 -4 16 -28 35 -53
23 -30 55 -55 96 -76 144 -72 317 -16 389 125 24 47 25 58 28 260 l3 212 117
4 c146 6 206 31 291 116 124 125 154 294 78 446 l-32 63 59 11 c223 42 366
250 321 466 -8 37 -26 88 -40 112 -29 49 -29 48 45 58 109 15 230 109 285 221
26 54 29 70 29 160 1 93 -1 105 -31 169 -18 37 -33 69 -33 71 0 1 23 5 51 8
100 12 218 88 274 177 77 122 85 251 22 381 -23 49 -53 91 -82 118 -54 50
-149 96 -218 106 -26 4 -46 10 -44 14 55 102 62 126 62 226 0 92 -3 106 -32
167 -17 37 -52 88 -78 113 -54 55 -152 103 -224 112 -28 3 -50 9 -48 12 82
150 92 267 33 396 -50 110 -173 205 -284 220 -75 10 -76 11 -53 42 12 14 31
58 43 96 26 88 21 177 -16 262 -50 111 -122 178 -241 221 l-66 24 -902 -1
-902 0 -60 -22z m1911 -164 c53 -28 97 -79 119 -137 44 -115 -27 -259 -144
-295 -49 -14 -1788 -16 -1841 -1 -81 23 -160 128 -160 215 0 109 71 202 180
236 14 4 426 7 915 6 l890 -2 41 -22z m298 -623 c102 -38 169 -161 145 -269
-14 -67 -61 -128 -124 -160 l-49 -26 -1216 0 -1215 0 -50 25 c-29 14 -63 43
-82 67 -71 95 -63 223 18 304 42 42 68 55 134 69 22 4 571 7 1220 6 996 -1
1186 -4 1219 -16z m310 -631 c55 -15 128 -91 145 -151 30 -107 -11 -216 -103
-273 l-49 -30 -401 -3 -401 -3 -28 45 c-45 72 -157 171 -239 210 -117 56 -191
66 -478 66 -287 0 -361 -10 -478 -66 -82 -39 -194 -138 -239 -210 l-28 -45
-400 3 c-391 3 -401 3 -442 25 -100 54 -145 168 -112 287 13 48 94 131 140
145 50 14 3062 14 3113 0z m-1258 -308 c5 -4 31 -14 57 -20 27 -6 65 -22 85
-35 58 -36 168 -159 182 -203 7 -21 18 -44 24 -52 17 -22 15 -439 -2 -477 -66
-142 -134 -220 -229 -264 -26 -12 -59 -27 -72 -33 -17 -8 -121 -12 -341 -12
-220 0 -324 4 -341 12 -13 6 -46 21 -72 33 -95 44 -163 122 -229 264 -17 38
-19 455 -2 477 6 8 17 31 24 52 14 43 124 167 181 203 20 12 56 28 80 35 24 7
48 16 54 21 12 11 588 10 601 -1z m-1111 -546 l0 -235 -511 0 c-363 0 -521 3
-545 12 -115 39 -181 167 -148 285 16 58 99 147 150 161 20 6 247 11 544 11
l510 1 0 -235z m2676 225 c46 -13 115 -72 140 -122 59 -116 14 -254 -103 -312
l-52 -26 -515 0 -516 0 0 235 0 235 505 0 c303 0 519 -4 541 -10z m-2581 -665
c80 -116 190 -199 326 -246 67 -23 77 -24 394 -24 317 0 327 1 395 24 131 45
218 108 302 219 l56 73 391 -3 391 -3 55 -31 c69 -39 109 -99 117 -175 7 -74
-10 -128 -57 -182 -79 -89 68 -82 -1655 -82 l-1520 0 -45 21 c-90 42 -139 118
-140 215 0 73 38 151 91 186 77 51 87 52 491 53 l377 0 31 -45z m1987 -620
c62 -31 96 -73 117 -146 31 -103 -17 -214 -114 -269 l-45 -25 -1225 0 -1225 0
-41 22 c-57 30 -100 83 -119 145 -19 65 -19 76 1 135 23 67 58 108 117 138
l51 25 1216 0 1216 0 51 -25z m-301 -640 c30 -19 60 -49 79 -79 26 -43 30 -59
30 -121 0 -62 -4 -78 -30 -121 -19 -30 -49 -60 -79 -79 -44 -27 -58 -30 -152
-33 l-104 -4 0 81 c0 74 -2 84 -25 106 -38 38 -77 33 -127 -18 -1 -1 -5 -165
-8 -364 l-5 -363 -32 -31 c-63 -63 -175 -44 -209 36 -10 26 -14 81 -14 217 0
173 -1 183 -22 205 -30 32 -81 31 -113 -2 -22 -22 -25 -32 -25 -105 0 -93 -15
-131 -63 -160 -61 -38 -140 -18 -177 43 -17 28 -20 51 -20 170 0 136 0 138
-26 162 l-26 24 -366 3 -367 3 -48 28 c-159 93 -152 324 12 409 l54 28 907 -2
907 -3 49 -30z"/>
</g>
</svg>
